# xmcd
#
# Track frame offsets:
#	150
#	20730
#	42744
#	60685
#	85295
#	106778
#	124544
#	142526
#	159626
#	177347
#	195392
#	221765
#	241785
#	265437
#	287230
#	308041
#
# Disc length: 4260 seconds
#
# Revision: 2
# Processed by: cddbd v1.5.2PL0 Copyright (c) Steve Scherf et al.
# Submitted via: EasyCDDAExtractor 10.2.0.1
#
DISCID=e210a210
DTITLE=Muzik - Turkisch
DYEAR=1900
DGENRE=Blues
TTITLE0=Cam
TTITLE1=Lo
TTITLE2=lol
TTITLE3=POLA
TTITLE4=pol
TTITLE5=OP
TTITLE6=PÖL
TTITLE7=püüü
TTITLE8=trejj
TTITLE9=kioo
TTITLE10=tre
TTITLE11=rew
TTITLE12=rdf
TTITLE13=ghz
TTITLE14=kol
TTITLE15=kji
EXTD=
EXTT0=
EXTT1=
EXTT2=
EXTT3=
EXTT4=
EXTT5=
EXTT6=
EXTT7=
EXTT8=
EXTT9=
EXTT10=
EXTT11=
EXTT12=
EXTT13=
EXTT14=
EXTT15=
PLAYORDER=
